<?xml version="1.0" standalone="no"?>
<!DOCTYPE svg PUBLIC "-//W3C//DTD SVG 1.1//EN" "http://www.w3.org/Graphics/SVG/1.1/DTD/svg11.dtd" >
<svg xmlns="http://www.w3.org/2000/svg" xmlns:xlink="http://www.w3.org/1999/xlink" version="1.1">
<metadata></metadata>
<defs>
<font id="unboundedregular" horiz-adv-x="620" >
<font-face units-per-em="1000" ascent="800" descent="-200" />
<missing-glyph horiz-adv-x="265" />
<glyph unicode="&#xfb01;" horiz-adv-x="813" d="M17 427v100h499v-100h-499zM138 0v544q0 72 27 126t82.5 84t142.5 30q39 0 70 -7t59 -18v-102q-26 14 -54 20t-61 6q-69 0 -102.5 -28t-33.5 -95v-560h-130zM594 715q0 33 24 53.5t61 20.5q38 0 61.5 -20.5t23.5 -53.5t-23.5 -53.5t-61.5 -20.5q-37 0 -61 20.5t-24 53.5z M614 0v570l65 -12l65 12v-570h-130z" />
<glyph unicode="&#xfb02;" horiz-adv-x="813" d="M17 427v100h499v-100h-499zM138 0v544q0 72 27 126t82.5 84t142.5 30q39 0 70 -7t59 -18v-102q-26 14 -54 20t-61 6q-69 0 -102.5 -28t-33.5 -95v-560h-130zM614 0v770h130v-770h-130z" />
<glyph horiz-adv-x="0" />
<glyph horiz-adv-x="333" />
<glyph unicode=" "  horiz-adv-x="265" />
<glyph unicode="&#x09;" horiz-adv-x="265" />
<glyph unicode="&#xa0;" horiz-adv-x="265" />
<glyph unicode="!" horiz-adv-x="280" d="M59 69q0 34 23 55.5t58 21.5q36 0 58.5 -21.5t22.5 -55.5t-22.5 -55.5t-58.5 -21.5q-35 0 -58 21.5t-23 55.5zM73 750h134l-21 -522h-92z" />
<glyph unicode="&#x22;" horiz-adv-x="422" d="M50 750h124l-23 -270h-78zM247 750h124l-23 -270h-78z" />
<glyph unicode="#" horiz-adv-x="827" d="M47 208v94h709v-94h-709zM71 446v94h709v-94h-709zM150 0l88 750h107l-88 -750h-107zM482 0l88 750h107l-88 -750h-107z" />
<glyph unicode="$" horiz-adv-x="765" d="M37 244h130q8 -71 68 -113t161 -42q98 0 148 33t50 85q0 30 -15.5 52t-53.5 37t-106 22l-100 10q-135 14 -201.5 68t-66.5 145q0 67 39.5 117t111.5 78t171 28t172.5 -30t115.5 -84t46 -125h-129q-7 59 -58 97.5t-149 38.5q-94 0 -142 -32.5t-48 -84.5q0 -26 14.5 -46.5 t49.5 -34t95 -19.5l105 -10q102 -9 163.5 -37t89 -72.5t27.5 -106.5q0 -67 -40 -119.5t-114 -82.5t-177 -30q-105 0 -184 32.5t-124.5 91t-48.5 134.5zM330 -82v914h101v-914h-101z" />
<glyph unicode="%" horiz-adv-x="1211" d="M27 539q0 65 31 114.5t86 77t127 27.5q73 0 127.5 -27.5t85.5 -77t31 -114.5t-31 -115t-85.5 -77.5t-127.5 -27.5q-72 0 -127 27.5t-86 77.5t-31 115zM133 539q0 -64 37 -100.5t101 -36.5t101 36.5t37 100.5q0 63 -37 100t-101 37t-101 -37t-37 -100zM353 0l406 750h103 l-407 -750h-102zM698 208q0 65 31 114.5t86 77t127 27.5q73 0 127.5 -27.5t85.5 -77t31 -114.5t-31 -115t-85.5 -77.5t-127.5 -27.5q-72 0 -127 27.5t-86 77.5t-31 115zM804 208q0 -64 37 -100.5t101 -36.5t101 36.5t37 100.5q0 63 -37 100t-101 37t-101 -37t-37 -100z" />
<glyph unicode="&#x26;" horiz-adv-x="878" d="M37 203q0 57 29 102.5t88.5 77.5t150.5 45l33 -53q-82 -19 -126 -60t-44 -96q0 -35 19.5 -65t56 -48t87.5 -18q79 0 133 32t95 87l140 190h139l-199 -246q-44 -55 -91.5 -91.5t-103.5 -55t-127 -18.5q-88 0 -150.5 29.5t-96 78.5t-33.5 109zM129 578q0 56 33 97.5 t94.5 65t145.5 23.5q89 0 152.5 -28t98.5 -76.5t39 -111.5h-130q-7 53 -46.5 86t-110.5 33q-41 0 -72 -11t-48.5 -32.5t-17.5 -52.5q0 -22 14.5 -48t50.5 -56l552 -467h-169l-484 408q-51 44 -76.5 85t-25.5 85z" />
<glyph unicode="'" horiz-adv-x="229" d="M50 750h129l-24 -270h-81z" />
<glyph unicode="(" horiz-adv-x="331" d="M43 324q0 113 39 218t118 208h106q-66 -109 -97.5 -213.5t-31.5 -212.5q0 -106 31.5 -210.5t97.5 -214.5h-106q-79 104 -118 208.5t-39 216.5z" />
<glyph unicode=")" horiz-adv-x="331" d="M25 -101q66 110 97.5 214.5t31.5 210.5q0 108 -31.5 212.5t-97.5 213.5h106q79 -103 118 -208t39 -218q0 -112 -39 -216.5t-118 -208.5h-106z" />
<glyph unicode="*" horiz-adv-x="519" d="M40 576l26 83l156 -59l-6 165h87l-5 -165l155 59l27 -83l-159 -48l106 -132l-70 -51l-97 138l-98 -138l-70 51l106 132z" />
<glyph unicode="+" d="M30 304v100h560v-100h-560zM260 74v560h100v-560h-100z" />
<glyph unicode="," horiz-adv-x="261" d="M40 -138l83 179l7 -47q-23 0 -41.5 11t-29.5 29.5t-11 40.5q0 23 11 41t29.5 28.5t41.5 10.5q24 0 42.5 -11t29 -30t10.5 -43q0 -23 -10 -48.5t-35 -66.5l-55 -94h-72z" />
<glyph unicode="-" horiz-adv-x="351" d="M59 298v107h233v-107h-233z" />
<glyph unicode="." horiz-adv-x="258" d="M47 74q0 23 11 41.5t29.5 29.5t41.5 11t41.5 -11t29.5 -29.5t11 -41.5t-11 -41.5t-29.5 -29.5t-41.5 -11t-41.5 11t-29.5 29.5t-11 41.5z" />
<glyph unicode="/" horiz-adv-x="421" d="M16 -27l280 804h109l-280 -804h-109z" />
<glyph unicode="0" horiz-adv-x="893" d="M50 375q0 117 48 204.5t137 136t212 48.5t211.5 -48.5t136.5 -136t48 -204.5t-48 -204.5t-136.5 -136t-211.5 -48.5t-212 48.5t-137 136t-48 204.5zM183 375q0 -133 69.5 -206.5t194.5 -73.5t194 73.5t69 206.5t-69 206.5t-194 73.5t-194.5 -73.5t-69.5 -206.5z" />
<glyph unicode="1" horiz-adv-x="471" d="M9 591v105l275 54h99v-750h-132v710l72 -64z" />
<glyph unicode="2" horiz-adv-x="789" d="M42 492q6 83 53.5 144t126.5 94.5t180 33.5q96 0 168.5 -30t113 -84t40.5 -125q0 -55 -26.5 -102t-87 -95.5t-163.5 -109.5l-249 -147l-17 39h566v-110h-698v96l319 194q84 51 132.5 88.5t69.5 70.5t21 70q0 39 -21 70t-63.5 49t-108.5 18q-75 0 -123 -22t-71.5 -59.5 t-28.5 -82.5h-133z" />
<glyph unicode="3" horiz-adv-x="804" d="M36 239h133q9 -70 68 -107.5t166 -37.5t161 35t54 96q0 36 -18.5 60.5t-61 37.5t-114.5 13h-136v98h136q93 0 135 30.5t42 78.5q0 53 -46.5 83t-144.5 30q-96 0 -152.5 -35.5t-67.5 -101.5h-133q7 69 50.5 124.5t122 88t187.5 32.5q97 0 168.5 -25.5t110.5 -71t39 -107.5 q0 -52 -30.5 -93.5t-92.5 -65.5t-155 -24v19q92 4 158 -16.5t101.5 -62t35.5 -101.5q0 -67 -41 -119t-118.5 -81.5t-189.5 -29.5q-109 0 -190 31.5t-126.5 88.5t-50.5 133z" />
<glyph unicode="4" horiz-adv-x="803" d="M23 158v95l447 497h168v-750h-132v695h54l-430 -478l-3 47h648v-106h-752z" />
<glyph unicode="5" horiz-adv-x="775" d="M34 221h133q14 -59 72 -93t153 -34q64 0 110.5 18.5t72.5 52t26 79.5q0 45 -21.5 78.5t-65 52t-110.5 18.5q-55 0 -98.5 -13t-75 -33t-52.5 -42h-110l58 445h548v-107h-505l55 35l-42 -316l-39 -1q23 35 62.5 66t96 50.5t127.5 19.5q98 0 166 -33.5t103.5 -90.5 t35.5 -129q0 -75 -42 -133t-118.5 -91.5t-181.5 -33.5t-182 31t-121.5 84.5t-54.5 119.5z" />
<glyph unicode="6" horiz-adv-x="825" d="M51 375q0 114 44 202t129.5 137.5t209.5 49.5q89 0 158 -27t113 -73.5t55 -106.5h-130q-16 41 -60 69.5t-133 28.5q-90 0 -147 -33.5t-83.5 -95t-26.5 -147.5q0 -89 30 -153t89 -97.5t146 -33.5q66 0 110.5 18.5t67 51.5t22.5 74q0 39 -20 69.5t-61.5 48.5t-106.5 18 q-87 0 -161 -42t-123 -109l-56 41q33 61 85.5 110.5t123 79t157.5 29.5q89 0 155.5 -29.5t103 -83.5t36.5 -128q0 -76 -41 -134t-115.5 -90.5t-176.5 -32.5q-129 0 -217 49.5t-132.5 137.5t-44.5 202z" />
<glyph unicode="7" horiz-adv-x="704" d="M9 640v110h667v-107l-393 -643h-141l418 679l-1 -39h-550z" />
<glyph unicode="8" horiz-adv-x="854" d="M49 206q0 101 90.5 151.5t253.5 40.5v-21q-148 -3 -231.5 45t-83.5 137q0 97 91 151t258 54t258 -54t91 -151q0 -89 -83 -137t-232 -45v21q164 9 254 -41t90 -151q0 -105 -98 -162.5t-280 -57.5q-181 0 -279.5 57.5t-98.5 162.5zM182 213q0 -60 63 -90.5t182 -30.5 t182 30.5t63 90.5q0 62 -63 91t-182 29t-182 -29t-63 -91zM210 548q0 -37 25.5 -62t74 -37t117.5 -12t117.5 12t74 37t25.5 62q0 53 -56.5 81.5t-160.5 28.5q-103 0 -160 -28.5t-57 -81.5z" />
<glyph unicode="9" horiz-adv-x="825" d="M47 507q0 76 41 134t116 90.5t176 32.5q129 0 217 -49.5t133 -137t44 -202.5q1 -114 -43.5 -201.5t-130 -137.5t-209.5 -50q-88 0 -157.5 27t-113 74t-55.5 106h130q16 -41 60 -69.5t133 -28.5q91 0 147.5 33.5t83 95.5t26.5 147q0 90 -30 153.5t-89 97t-146 33.5 q-66 0 -110.5 -18.5t-67 -51t-22.5 -74.5q0 -38 20 -69t62 -49t106 -18q87 0 161 42t123 109l56 -41q-32 -61 -85 -110.5t-123.5 -79t-157.5 -29.5q-89 0 -155.5 29.5t-103 84t-36.5 127.5z" />
<glyph unicode=":" horiz-adv-x="294" d="M65 74q0 35 24 58.5t58 23.5q35 0 58.5 -23.5t23.5 -58.5q0 -34 -23.5 -58t-58.5 -24q-34 0 -58 24t-24 58zM65 442q0 35 24 58.5t58 23.5q35 0 58.5 -23.5t23.5 -58.5q0 -34 -23.5 -58t-58.5 -24q-34 0 -58 24t-24 58z" />
<glyph unicode=";" horiz-adv-x="301" d="M62 -138l83 179l7 -48q-36 0 -58.5 21.5t-22.5 55.5q0 33 22.5 54.5t58.5 21.5t58.5 -22t22.5 -57q0 -21 -9.5 -46t-35.5 -66l-55 -93h-71zM69 442q0 35 24 58.5t58 23.5q35 0 58.5 -23.5t23.5 -58.5q0 -34 -23.5 -58t-58.5 -24q-34 0 -58 24t-24 58z" />
<glyph unicode="&#x3c;" d="M29 302v108l560 206v-105l-478 -171v32l478 -171v-105z" />
<glyph unicode="=" d="M30 184v100h560v-100h-560zM30 424v100h560v-100h-560z" />
<glyph unicode="&#x3e;" d="M31 96v105l478 171v-32l-478 171v105l560 -206v-108z" />
<glyph unicode="?" horiz-adv-x="653" d="M18 520q9 115 91.5 179.5t221.5 64.5q140 0 218.5 -59t78.5 -163q0 -50 -30 -94t-87 -74l-81 -43q-29 -16 -44.5 -33.5t-15.5 -44.5v-32h-111q-3 11 -4 21t-1 20q0 47 25 79.5t78 60.5l76 41q31 17 50 40.5t19 51.5q0 56 -45.5 89t-125.5 33q-79 0 -129 -36.5t-58 -100.5 h-126zM231 69q0 34 23 55.5t58 21.5q36 0 58.5 -21.5t22.5 -55.5t-22.5 -55.5t-58.5 -21.5q-35 0 -58 21.5t-23 55.5z" />
<glyph unicode="@" horiz-adv-x="1016" d="M39 317q0 98 34.5 177.5t99 136.5t154.5 88t201 31q136 0 237.5 -45.5t158 -127.5t56.5 -192q0 -77 -32 -134t-90.5 -88.5t-137.5 -31.5h-58l-33 146l18 53l-19 52l24 147h120l-28 -199l36 -183l-47 49q48 1 83 24t54.5 65.5t19.5 98.5q0 87 -45 151t-126.5 99t-190.5 35 q-119 0 -208 -43.5t-138 -122t-49 -185.5q0 -99 48.5 -172.5t136.5 -114t206 -40.5q56 0 114 8.5t110.5 25t91.5 38.5v-87q-41 -20 -94.5 -35t-111.5 -23t-113 -8q-145 0 -253.5 50.5t-168.5 142.5t-60 214zM261 330q0 62 25 109.5t70 74t103 26.5t101 -27t70.5 -74 t37.5 -109q-17 -96 -71.5 -153t-137.5 -57q-58 0 -102.5 26.5t-70 74t-25.5 109.5zM379 330q0 -53 32 -85.5t81 -32.5q50 0 89.5 33t58.5 85q-19 52 -58.5 85t-89.5 33q-33 0 -58.5 -15t-40 -41.5t-14.5 -61.5z" />
<glyph unicode="A" horiz-adv-x="899" d="M7 0l360 750h165l360 -750h-141l-327 700h51l-327 -700h-141zM184 172v109h524v-109h-524z" />
<glyph unicode="B" horiz-adv-x="847" d="M58 0l59 385l-59 365h482q104 0 160.5 -48.5t56.5 -133.5q0 -45 -21.5 -87.5t-69 -72t-127.5 -36.5l13 29q89 -1 145.5 -27t83 -70t26.5 -99q0 -60 -28.5 -106t-83.5 -72.5t-137 -26.5h-500zM140 106h403q62 0 96.5 28.5t34.5 81.5q0 56 -40.5 87t-119.5 31h-325v102h312 q53 0 88 29.5t35 84.5q0 41 -29 67.5t-84 26.5h-371l51 69l53 -328l-53 -348z" />
<glyph unicode="C" horiz-adv-x="912" d="M45 375q0 116 53 203.5t148 136.5t221 49q113 0 201 -39t142.5 -109t64.5 -163h-133q-11 60 -47.5 103t-94.5 66.5t-134 23.5q-88 0 -152.5 -33t-99.5 -94t-35 -144t35 -144t99.5 -94t152.5 -33q76 0 134 23t94.5 66.5t47.5 103.5h133q-10 -92 -64.5 -162.5 t-142.5 -109.5t-201 -39q-126 0 -221 49t-148 136.5t-53 203.5z" />
<glyph unicode="D" horiz-adv-x="896" d="M84 0v750h339q128 0 224.5 -47t150.5 -131.5t54 -196.5t-54 -196.5t-150.5 -131.5t-224.5 -47h-339zM143 116h289q86 0 150.5 32.5t100 91t35.5 135.5q0 78 -35.5 136t-100 90.5t-150.5 32.5h-289l73 70v-658z" />
<glyph unicode="E" horiz-adv-x="766" d="M58 0l60 375l-60 375h649v-114h-577l63 74l53 -335l-53 -335l-63 74h582v-114h-654zM159 320v110h524v-110h-524z" />
<glyph unicode="F" horiz-adv-x="740" d="M84 0v750h619v-116h-559l72 75v-709h-132zM148 306v116h539v-116h-539z" />
<glyph unicode="G" horiz-adv-x="946" d="M45 375q0 90 31.5 162t88.5 122.5t134 77.5t169 27q115 0 201.5 -37.5t139.5 -102.5t65 -149h-134q-11 53 -47.5 92t-93.5 60t-132 21q-88 0 -152.5 -32.5t-100 -93.5t-35.5 -147t36.5 -148t103.5 -95t158 -33q88 0 154 30t104 83.5t41 124.5l59 -11q-1 -70 -27 -131.5 t-74 -108.5t-116.5 -73.5t-156.5 -26.5q-89 0 -165 27t-132.5 77.5t-87.5 122.5t-31 162zM503 269v100h379v-369h-98l-16 311l31 -42h-296z" />
<glyph unicode="H" horiz-adv-x="910" d="M84 0v750h132v-750h-132zM155 320v116h602v-116h-602zM694 0v750h132v-750h-132z" />
<glyph unicode="I" horiz-adv-x="300" d="M84 0v750h132v-750h-132z" />
<glyph unicode="J" horiz-adv-x="779" d="M25 318v41h130v-33q0 -105 49 -163.5t159 -58.5t159.5 57t49.5 157v432h132v-437q0 -108 -43 -181t-120 -109.5t-178 -36.5q-100 0 -176.5 37t-119 111t-42.5 184z" />
<glyph unicode="K" horiz-adv-x="832" d="M84 0v750h132v-639l-40 25l502 614h143l-619 -750h-118zM441 377l93 91l298 -468h-151z" />
<glyph unicode="L" horiz-adv-x="738" d="M84 0v750h132v-691l-59 57h565v-116h-638z" />
<glyph unicode="M" horiz-adv-x="1177" d="M84 0v750h202l336 -693h-66l335 693h202v-750h-126v710l41 -2l-349 -708h-141l-349 707l41 2v-709h-126z" />
<glyph unicode="N" horiz-adv-x="937" d="M84 0v750h172l523 -670l-54 -6v676h128v-750h-168l-526 676l53 6v-682h-128z" />
<glyph unicode="O" horiz-adv-x="948" d="M44 375q0 116 54 203.5t151 136.5t225 49t225 -49t151 -136.5t54 -203.5t-54 -203.5t-151 -136.5t-225 -49t-225 49t-151 136.5t-54 203.5zM178 375q0 -83 36.5 -144t103 -94t156.5 -33q91 0 157 33t102.5 94t36.5 144t-36.5 144t-102.5 94t-157 33q-90 0 -156.5 -33 t-103 -94t-36.5 -144z" />
<glyph unicode="P" horiz-adv-x="779" d="M84 0v750h397q84 0 145.5 -30t95 -83.5t33.5 -123.5t-33.5 -123.5t-95 -83.5t-145.5 -30h-337v114h332q68 0 106.5 33t38.5 90t-38.5 90t-106.5 33h-319l59 66v-702h-132z" />
<glyph unicode="Q" horiz-adv-x="948" d="M44 375q0 116 54 203.5t151 136.5t225 49t225 -49t151 -136.5t54 -203.5t-54 -203.5t-151 -136.5t-225 -49t-225 49t-151 136.5t-54 203.5zM178 375q0 -83 36.5 -144t103 -94t156.5 -33q91 0 157 33t102.5 94t36.5 144t-36.5 144t-102.5 94t-157 33q-90 0 -156.5 -33 t-103 -94t-36.5 -144zM379 286h161l333 -338h-164z" />
<glyph unicode="R" horiz-adv-x="811" d="M84 0v750h409q79 0 138.5 -28.5t93 -79t33.5 -118.5q0 -66 -33.5 -116.5t-93 -79t-138.5 -28.5h-317v112h305q66 0 104.5 30t38.5 82q0 53 -38.5 82.5t-104.5 29.5h-324l59 74v-710h-132zM324 351h155l298 -351h-158z" />
<glyph unicode="S" horiz-adv-x="803" d="M38 244h134q6 -45 37.5 -79t83.5 -52.5t120 -18.5q101 0 160 31.5t59 85.5q0 44 -34 66t-123 33l-162 21q-136 18 -197.5 67.5t-61.5 140.5q0 69 41.5 119.5t117.5 78t178 27.5q101 0 179 -30t124.5 -83.5t50.5 -125.5h-134q-5 40 -33.5 69t-76.5 45.5t-113 16.5 q-92 0 -147 -30t-55 -82q0 -40 32.5 -61.5t113.5 -32.5l164 -23q101 -14 159.5 -37.5t83.5 -63t25 -101.5q0 -72 -44 -126t-123.5 -83.5t-185.5 -29.5q-108 0 -190.5 32.5t-130.5 90.5t-52 135z" />
<glyph unicode="T" horiz-adv-x="784" d="M16 634v116h752v-116h-752zM326 0v689h132v-689h-132z" />
<glyph unicode="U" horiz-adv-x="862" d="M74 317v433h132v-428q0 -67 27 -116t77.5 -75.5t120.5 -26.5q71 0 121 26.5t77 75.5t27 116v428h132v-433q0 -99 -45 -173.5t-125 -116t-187 -41.5q-106 0 -186.5 41.5t-125.5 116t-45 173.5z" />
<glyph unicode="V" horiz-adv-x="885" d="M7 750h142l327 -694h-62l323 694h141l-362 -750h-147z" />
<glyph unicode="W" horiz-adv-x="1316" d="M14 750h139l229 -700l-48 1l253 699h143l254 -700h-50l230 700h138l-254 -750h-168l-253 687h62l-253 -687h-168z" />
<glyph unicode="X" horiz-adv-x="793" d="M-6 0l351 427v-72l-326 395h164l247 -309h-60l245 309h159l-325 -397v76l350 -429h-163l-270 340h58l-271 -340h-159z" />
<glyph unicode="Y" horiz-adv-x="871" d="M16 750h149l306 -384h-71l306 384h149l-377 -473l-84 -1zM370 0v358h132v-358h-132z" />
<glyph unicode="Z" horiz-adv-x="775" d="M40 0v101l554 583l85 -44h-635v110h687v-100l-555 -585l-73 45h631v-110h-694z" />
<glyph unicode="[" horiz-adv-x="381" d="M79 -101v851h274v-99h-212l60 59v-772l-60 60h212v-99h-274z" />
<glyph unicode="\" horiz-adv-x="421" d="M16 777h109l280 -804h-109z" />
<glyph unicode="]" horiz-adv-x="381" d="M28 -2h212l-60 -60v772l60 -59h-212v99h274v-851h-274v99z" />
<glyph unicode="^" d="M43 375l219 375h96l220 -375h-115l-172 295h40l-174 -295h-114z" />
<glyph unicode="_" horiz-adv-x="482" d="M-19 -30h520v-90h-520v90z" />
<glyph unicode="`" horiz-adv-x="318" d="M33 799h130l122 -172h-125z" />
<glyph unicode="a" horiz-adv-x="787" d="M39 283q0 89 36 155.5t100 104t147 37.5q79 0 143.5 -37t109 -103.5t62.5 -156.5q-19 -89 -63 -156t-108.5 -104t-143.5 -37q-83 0 -147 37.5t-100 104.5t-36 155zM171 283q0 -57 23.5 -100.5t64.5 -68t94 -24.5q54 0 100 24.5t81.5 68t56.5 100.5q-21 57 -56.5 100.5 t-81.5 68t-100 24.5q-53 0 -94 -24.5t-64.5 -68t-23.5 -100.5zM575 210l26 73l-26 72l22 211h134l-30 -283l30 -283h-134z" />
<glyph unicode="b" horiz-adv-x="784" d="M69 0v770h130v-399l-20 -37v-105l20 -42v-187h-130zM147 283q19 90 63 156.5t108.5 103.5t143.5 37q83 0 147 -37.5t100 -104t36 -155.5q0 -88 -36 -155t-100 -104.5t-147 -37.5q-79 0 -143.5 37t-108.5 104t-63 156zM193 283q22 -57 57 -100.5t81.5 -68t99.5 -24.5 t94 24.5t64.5 68t23.5 100.5t-23.5 100.5t-64.5 68t-94 24.5t-99.5 -24.5t-81.5 -68t-57 -100.5z" />
<glyph unicode="c" horiz-adv-x="724" d="M37 283q0 88 42 155t116.5 104.5t172.5 37.5q86 0 156 -30t115 -83.5t55 -124.5h-131q-14 64 -67 100t-128 36q-60 0 -105 -23.5t-69.5 -67t-24.5 -104.5q0 -60 24.5 -104t69.5 -67.5t105 -23.5q76 0 129 37t66 98h131q-10 -70 -55 -123.5t-115 -83.5t-156 -30 q-98 0 -172.5 37.5t-116.5 104.5t-42 155z" />
<glyph unicode="d" horiz-adv-x="788" d="M39 283q0 89 36 155.5t100 104t147 37.5q79 0 143.5 -37t109 -103.5t62.5 -156.5q-19 -89 -63 -156t-108.5 -104t-143.5 -37q-83 0 -147 37.5t-100 104.5t-36 155zM171 283q0 -57 23.5 -100.5t64.5 -68t94 -24.5q54 0 100 24.5t81.5 68t56.5 100.5q-21 57 -56.5 100.5 t-81.5 68t-100 24.5q-53 0 -94 -24.5t-64.5 -68t-23.5 -100.5zM577 215l29 67l-28 77l42 411h134l-51 -479l29 -291h-133z" />
<glyph unicode="e" horiz-adv-x="710" d="M37 284q0 88 41.5 154.5t115 104t168.5 37.5t164.5 -42.5t107.5 -119.5t38 -181h-533v99h468l-65 -37q-3 56 -26.5 96t-63 61.5t-93.5 21.5q-57 0 -99.5 -23t-66.5 -64.5t-24 -98.5q0 -63 28.5 -109t81 -70.5t124.5 -24.5q65 0 133 20.5t120 57.5v-94q-52 -40 -126.5 -63 t-151.5 -23q-99 0 -176 37.5t-121 104.5t-44 156z" />
<glyph unicode="f" horiz-adv-x="538" d="M17 427v100h510v-100h-510zM138 0v539q0 73 27.5 128t85 86t146.5 31q43 0 76 -7t65 -18v-102q-29 14 -60 20t-66 6q-73 0 -108.5 -31t-35.5 -101v-551h-130z" />
<glyph unicode="g" horiz-adv-x="779" d="M37 312q0 81 36 141t98 93.5t140 33.5q58 0 107.5 -18t89 -47.5t67 -65t42.5 -72t15 -66.5q0 -39 -23 -85.5t-65.5 -87.5t-101.5 -67.5t-131 -26.5q-78 0 -140 33.5t-98 93.5t-36 141zM93 10q61 -48 126 -67.5t130 -19.5q114 0 174 56t60 160v100l5 18v109l-5 20v180h130 v-415q0 -109 -46 -182.5t-126 -110.5t-184 -37q-76 0 -140 20t-124 61v108zM168 312q0 -50 21.5 -89t62.5 -61t99 -22q71 0 130.5 41t106.5 131q-47 92 -106.5 132.5t-130.5 40.5q-58 0 -99 -22t-62.5 -61t-21.5 -90z" />
<glyph unicode="h" horiz-adv-x="736" d="M69 0v770h130v-770h-130zM153 301q9 88 46 150t95 95.5t130 33.5q80 0 136 -32t85.5 -91.5t29.5 -143.5v-313h-130v292q0 89 -41.5 134.5t-121.5 45.5q-55 0 -96.5 -24.5t-64 -68.5t-22.5 -103z" />
<glyph unicode="i" horiz-adv-x="268" d="M49 715q0 33 24 53.5t61 20.5q38 0 61.5 -20.5t23.5 -53.5t-23.5 -53.5t-61.5 -20.5q-37 0 -61 20.5t-24 53.5zM69 0v570l65 -12l65 12v-570h-130z" />
<glyph unicode="j" horiz-adv-x="268" d="M49 715q0 33 24 53.5t61 20.5q38 0 61.5 -20.5t23.5 -53.5t-23.5 -53.5t-61.5 -20.5q-37 0 -61 20.5t-24 53.5zM69 -165v735l65 -12l65 12v-735h-130z" />
<glyph unicode="k" horiz-adv-x="685" d="M69 0v770h130v-657l-38 14l360 439h150l-481 -566h-121zM360 280l91 82l237 -362h-153z" />
<glyph unicode="l" horiz-adv-x="268" d="M69 0v770h130v-770h-130z" />
<glyph unicode="m" horiz-adv-x="1155" d="M42 566h130l34 -204v-362h-130v381zM160 301q9 88 43.5 150t89 95.5t122.5 33.5q75 0 127.5 -32t80 -91.5t27.5 -143.5v-313h-130v292q0 89 -37.5 134.5t-109.5 45.5q-51 0 -88.5 -24.5t-58 -68.5t-20.5 -103zM604 301q9 88 43.5 150t89 95.5t121.5 33.5q75 0 128 -32 t80.5 -91.5t27.5 -143.5v-313h-130v292q0 89 -37.5 134.5t-109.5 45.5q-51 0 -88.5 -24.5t-58 -68.5t-20.5 -103z" />
<glyph unicode="n" horiz-adv-x="743" d="M42 566h130l34 -204v-362h-130v381zM160 301q9 88 46 150t95 95.5t130 33.5q80 0 136 -32t85.5 -91.5t29.5 -143.5v-313h-130v292q0 89 -41.5 134.5t-121.5 45.5q-55 0 -96.5 -24.5t-64 -68.5t-22.5 -103z" />
<glyph unicode="o" horiz-adv-x="764" d="M37 283q0 89 43.5 155.5t121 104t180.5 37.5t180.5 -37.5t121 -104t43.5 -155.5q0 -88 -43.5 -155t-121 -104.5t-180.5 -37.5t-180.5 37.5t-121 104.5t-43.5 155zM169 283q0 -60 26 -103.5t74 -67.5t113 -24q66 0 113.5 24t73.5 67.5t26 103.5t-26 103.5t-73.5 67.5 t-113.5 24q-65 0 -113 -24t-74 -67.5t-26 -103.5z" />
<glyph unicode="p" horiz-adv-x="786" d="M69 -165v731h130v-197l-6 -20v-114l6 -35v-365h-130zM149 283q19 90 63 156.5t108.5 103.5t143.5 37q83 0 147 -37.5t100 -104t36 -155.5q0 -88 -36 -155t-100 -104.5t-147 -37.5q-79 0 -143 37t-108.5 104t-63.5 156zM195 283q22 -57 57 -100.5t81.5 -68t99.5 -24.5 t94 24.5t64.5 68t23.5 100.5t-23.5 100.5t-64.5 68t-94 24.5t-99.5 -24.5t-81.5 -68t-57 -100.5z" />
<glyph unicode="q" horiz-adv-x="786" d="M39 283q0 89 36 155.5t100 104t147 37.5q79 0 143.5 -37t109 -103.5t62.5 -156.5q-19 -89 -63 -156t-108.5 -104t-143.5 -37q-83 0 -147 37.5t-100 104.5t-36 155zM171 283q0 -57 23.5 -100.5t64.5 -68t94 -24.5q54 0 100 24.5t81.5 68t56.5 100.5q-21 57 -56.5 100.5 t-81.5 68t-100 24.5q-53 0 -94 -24.5t-64.5 -68t-23.5 -100.5zM587 -165v365l6 35v114l-6 20v197h130v-731h-130z" />
<glyph unicode="r" horiz-adv-x="506" d="M42 566h130l34 -206v-360h-130v385zM176 293q4 60 20.5 112.5t46 91.5t72.5 61t100 22q20 0 41 -2.5t37 -7.5v-114q-22 6 -48 9t-49 3q-55 0 -98 -24t-67.5 -71.5t-24.5 -116.5z" />
<glyph unicode="s" horiz-adv-x="691" d="M30 191h132q6 -32 32.5 -56.5t70 -37.5t99.5 -13q81 0 122 19.5t41 59.5q0 27 -27.5 41t-103.5 21l-111 10q-90 8 -142 32.5t-74 60t-22 75.5q0 58 36 97t100 59.5t149 20.5q88 0 157 -24.5t110 -68t46 -100.5h-132q-4 23 -23.5 44.5t-59 36t-105.5 14.5 q-70 0 -109.5 -18t-39.5 -53q0 -22 24 -37.5t89 -21.5l143 -13q86 -8 134.5 -30.5t68.5 -57.5t20 -79q0 -57 -32 -99t-97 -64.5t-163 -22.5q-101 0 -175 25.5t-114.5 72t-43.5 107.5z" />
<glyph unicode="t" horiz-adv-x="555" d="M5 466v59l121 31l54 158h76v-148h263v-100h-263v-245q0 -71 30.5 -99.5t99.5 -28.5q44 0 78 9.5t65 27.5v-107q-26 -13 -73.5 -25t-97.5 -12q-83 0 -134 27.5t-74.5 76t-23.5 111.5v265h-121z" />
<glyph unicode="u" horiz-adv-x="732" d="M61 253v313h130v-293q0 -88 40.5 -133.5t116.5 -45.5q55 0 94.5 24t61.5 68.5t22 103.5l45 -25q-8 -87 -44 -149.5t-93 -96t-128 -33.5q-78 0 -132.5 32t-83.5 92t-29 143zM526 204v362h130v-382l33 -184h-130z" />
<glyph unicode="v" horiz-adv-x="714" d="M8 566h143l234 -508h-50l232 508h139l-276 -566h-146z" />
<glyph unicode="w" horiz-adv-x="1099" d="M12 566h132l196 -499h-49l196 499h130l191 -499h-46l195 499h130l-228 -566h-133l-200 507h51l-205 -507h-133z" />
<glyph unicode="x" horiz-adv-x="646" d="M-6 0l273 323l-1 -64l-256 307h149l194 -230h-55l195 230h144l-261 -309l-5 75l282 -332h-149l-212 248h57l-210 -248h-145z" />
<glyph unicode="y" horiz-adv-x="715" d="M10 566h143l246 -548h-129zM39 -33q38 -24 72.5 -35t77.5 -11q41 0 73 18.5t53 64.5l255 562h138l-293 -606q-24 -50 -56.5 -80.5t-71 -44.5t-82.5 -14q-50 0 -90.5 12.5t-75.5 34.5v99z" />
<glyph unicode="z" horiz-adv-x="650" d="M37 0v94l442 404l81 -32h-519v100h569v-94l-441 -404l-70 32h513v-100h-575z" />
<glyph unicode="{" horiz-adv-x="409" d="M34 279v91h59q31 0 48 18.5t7 53.5l-41 137q-15 49 -2.5 87.5t47 61t86.5 22.5h142v-95h-93q-38 0 -54 -22t-6 -60l32 -120q15 -53 -5 -85.5t-62 -43.5q42 -10 62 -42.5t5 -85.5l-32 -120q-10 -38 6 -60t54 -22h93v-95h-142q-52 0 -86.5 22.5t-47 61t2.5 87.5l41 137 q10 35 -7 53.5t-48 18.5h-59z" />
<glyph unicode="|" horiz-adv-x="284" d="M84 -98v848h116v-848h-116z" />
<glyph unicode="}" horiz-adv-x="409" d="M29 -6h93q38 0 54 22t6 60l-32 120q-15 53 5 85.5t62 42.5q-42 11 -62 43.5t-5 85.5l32 120q10 38 -6 60t-54 22h-93v95h142q52 0 86.5 -22.5t47 -61t-2.5 -87.5l-41 -137q-10 -35 7 -53.5t48 -18.5h59v-91h-59q-31 0 -48 -18.5t-7 -53.5l41 -137q15 -49 2.5 -87.5 t-47 -61t-86.5 -22.5h-142v95z" />
<glyph unicode="~" d="M30 287v99q77 34 164 34q43 0 79.5 -8t73.5 -16t79 -8q86 0 164 33v-99q-77 -34 -164 -34q-42 0 -79 8t-73.5 16t-79.5 8q-86 0 -164 -33z" />
<glyph unicode="&#xa1;" horiz-adv-x="269" d="M54 526q0 34 22.5 55.5t58.5 21.5q35 0 58 -21.5t23 -55.5t-23 -55.5t-58 -21.5q-36 0 -58.5 21.5t-22.5 55.5zM68 -155l21 522h92l21 -522h-134z" />
<glyph unicode="&#xa2;" horiz-adv-x="757" d="M59 282q0 88 41 155t114.5 104.5t169.5 37.5q85 0 153.5 -29.5t113 -82.5t54.5 -123h-124q-13 63 -66.5 100.5t-130.5 37.5q-61 0 -106.5 -24t-70.5 -69t-25 -107q0 -61 25 -106t70.5 -69t106.5 -24q76 0 129.5 37t67.5 101h124q-10 -69 -54 -122t-112.5 -83t-154.5 -30 q-96 0 -169.5 37.5t-114.5 104.5t-41 154zM334 -84v733h92v-733h-92z" />
<glyph unicode="&#xa3;" horiz-adv-x="777" d="M50 0v106q103 21 154 57t51 82q0 29 -14 53t-35 47.5t-42.5 50.5t-35.5 63t-14 85q0 66 38.5 115.5t107 77t158.5 27.5q89 0 158 -28t109.5 -77.5t44.5 -116.5h-132q-10 53 -57.5 83.5t-119.5 30.5q-80 0 -127.5 -33t-47.5 -89q0 -37 14 -65.5t34.5 -52t41 -46.5 t34.5 -49.5t14 -59.5q0 -41 -22.5 -76.5t-64 -62t-98.5 -44.5l-40 24h581v-102h-690zM50 310v93h572v-93h-572z" />
<glyph unicode="&#xa4;" horiz-adv-x="694" d="M49 177l105 91l57 -49l-112 -94zM49 561l50 52l112 -94l-57 -49zM81 369q0 65 31 115.5t90 79t144 28.5t144.5 -28.5t90.5 -79t31 -115.5t-31 -115.5t-90.5 -79t-144.5 -28.5t-144 28.5t-90 79t-31 115.5zM189 369q0 -58 39 -93t118 -35q80 0 119 35t39 93q0 59 -39 93.5 t-119 34.5q-79 0 -118 -34.5t-39 -93.5zM481 219l58 49l105 -91l-50 -52zM481 519l113 94l50 -56l-105 -87z" />
<glyph unicode="&#xa5;" horiz-adv-x="826" d="M30 750h148l273 -385h-75l272 385h148l-341 -473l-83 -1zM89 144v90h651v-90h-651zM89 300v90h272l53 -33l48 33h278v-90h-651zM348 0v358h131v-358h-131z" />
<glyph unicode="&#xa6;" horiz-adv-x="284" d="M84 -98v325h116v-325h-116zM84 425v325h116v-325h-116z" />
<glyph unicode="&#xa7;" horiz-adv-x="823" d="M53 357q0 54 42 89t127 48l15 -38q-34 -13 -50.5 -32.5t-16.5 -45.5q0 -37 30.5 -59t97.5 -42l223 -64q71 -20 116.5 -41.5t67.5 -53t22 -80.5q0 -50 -34.5 -91t-102.5 -65t-171 -24q-108 0 -181 29.5t-111 77t-42 101.5h131q4 -32 27 -59t67 -43.5t110 -16.5 q91 0 132 26t41 61q0 32 -26.5 50.5t-91.5 38.5l-218 61q-105 29 -154.5 69t-49.5 104zM96 584q0 50 34.5 91t103 65t170.5 24q108 0 181 -29.5t111.5 -77t41.5 -101.5h-131q-4 32 -27 59t-67 43.5t-110 16.5q-91 0 -132 -26t-41 -61q0 -32 27 -50.5t91 -38.5l218 -61 q74 -20 118.5 -44t65 -55t20.5 -74q0 -55 -42 -89.5t-128 -47.5l-14 38q35 13 51 33t16 45q0 38 -30.5 59.5t-97.5 41.5l-223 64q-70 20 -116 41.5t-68 53t-22 80.5z" />
<glyph unicode="&#xa8;" horiz-adv-x="532" d="M39 713q0 32 22.5 51.5t58.5 19.5t58.5 -19.5t22.5 -51.5q0 -33 -22.5 -52.5t-58.5 -19.5t-58.5 19.5t-22.5 52.5zM332 713q0 32 22.5 51.5t58.5 19.5q35 0 57.5 -19.5t22.5 -51.5q0 -33 -22.5 -52.5t-57.5 -19.5q-36 0 -58.5 19.5t-22.5 52.5z" />
<glyph unicode="&#xa9;" horiz-adv-x="914" d="M59 375q0 85 31 156t86 123.5t127 81t154 28.5q83 0 155 -28.5t126.5 -81t85.5 -123.5t31 -156t-31 -156t-85.5 -123.5t-126.5 -81t-155 -28.5q-82 0 -154.5 28.5t-127 81t-85.5 123.5t-31 156zM133 375q0 -71 25 -129.5t69.5 -101.5t103.5 -66t126 -23t126 23t103.5 66 t69.5 101.5t25 129.5t-25 129.5t-69.5 101.5t-103.5 66t-126 23t-126 -23t-103.5 -66t-69.5 -101.5t-25 -129.5zM206 377q0 72 31.5 126t88.5 84.5t133 30.5q68 0 121.5 -24.5t86.5 -69t39 -103.5h-100q-9 52 -48 81.5t-100 29.5q-70 0 -111 -42t-41 -113t41 -113.5 t111 -42.5q62 0 100.5 30t47.5 82h100q-6 -59 -39 -103.5t-86 -69t-122 -24.5q-76 0 -133 30.5t-88.5 84.5t-31.5 126z" />
<glyph unicode="&#xaa;" horiz-adv-x="644" d="M39 525q0 70 28 122.5t77 81.5t112 29q62 0 111 -29t82.5 -81.5t46.5 -122.5q-13 -68 -46.5 -120t-83 -81.5t-110.5 -29.5q-63 0 -112 29t-77 81.5t-28 120.5zM156 525q0 -40 16.5 -71.5t46 -49t66.5 -17.5q59 0 105 38.5t69 99.5q-23 62 -69 101t-105 39 q-38 0 -67 -17.5t-45.5 -49t-16.5 -73.5zM445 469l22 56l-22 59l17 162h118l-24 -220l24 -221h-118z" />
<glyph unicode="&#xab;" horiz-adv-x="619" d="M47 313l151 227h135l-168 -249v44l168 -249h-135zM285 313l151 227h135l-168 -249v44l168 -249h-135z" />
<glyph unicode="&#xac;" d="M26 407v100h560v-305h-98v266l57 -61h-519z" />
<glyph unicode="&#xad;" horiz-adv-x="351" d="M59 298v107h233v-107h-233z" />
<glyph unicode="&#xae;" horiz-adv-x="762" d="M60 459q0 66 24 121.5t67 96.5t102 64t128 23t128 -23t102 -64t67 -96.5t24 -121.5t-24 -121.5t-67 -97t-102 -64t-128 -22.5t-128 22.5t-102 64t-67 97t-24 121.5zM123 459q0 -71 33.5 -127.5t92 -88.5t132.5 -32q75 0 133 32t91.5 88.5t33.5 127.5t-33.5 127t-91.5 88 t-133 32q-74 0 -132.5 -32t-92 -88t-33.5 -127zM238 284v353h74v-353h-74zM293 418v57h113q27 0 42.5 14t15.5 38t-15.5 38t-42.5 14h-113v58h119q56 0 91.5 -30.5t35.5 -79.5t-35.5 -79t-91.5 -30h-119zM347 449h79l119 -165h-88z" />
<glyph unicode="&#xaf;" horiz-adv-x="496" d="M32 666v86h432v-86h-432z" />
<glyph unicode="&#xb0;" horiz-adv-x="413" d="M48 622q0 41 20 71.5t56 47.5t83 17t82.5 -17t55.5 -47.5t20 -71.5q0 -40 -20 -71t-55.5 -48t-82.5 -17t-83 17t-56 48t-20 71zM127 622q0 -35 21 -54t59 -19t58.5 19t20.5 54t-20.5 54.5t-58.5 19.5t-59 -19.5t-21 -54.5z" />
<glyph unicode="&#xb1;" d="M30 54v96h560v-96h-560zM30 370v96h560v-96h-560zM260 208v420h100v-420h-100z" />
<glyph unicode="&#xb2;" horiz-adv-x="541" d="M51 713q4 44 32.5 79t77.5 55.5t115 20.5q68 0 113 -19t67.5 -52t22.5 -75q0 -40 -18.5 -71t-55 -58.5t-90.5 -58.5l-136 -77l-59 37h368v-85h-434v66l171 96q45 25 78 48t51 46.5t18 50.5q0 30 -25 49t-77 19q-50 0 -79 -20t-34 -51h-106z" />
<glyph unicode="&#xb3;" horiz-adv-x="554" d="M31 571h106q6 -45 42.5 -64t97.5 -19q59 0 91 12.5t32 46.5q0 24 -20 39t-77 15h-85v71h85q34 0 53 8t27 21t8 26q0 24 -23 38.5t-83 14.5q-62 0 -95.5 -19.5t-38.5 -57.5h-106q7 75 72 120t173 45q104 0 157.5 -35.5t53.5 -93.5q0 -49 -46 -78t-138 -28v15 q75 1 117.5 -13.5t60.5 -39t18 -55.5q0 -60 -56.5 -100t-173.5 -40q-76 0 -132 22t-87 61t-33 88z" />
<glyph unicode="&#xb4;" horiz-adv-x="318" d="M33 627l122 172h130l-127 -172h-125z" />
<glyph unicode="&#xb6;" horiz-adv-x="774" d="M23 544q0 61 27 107t74.5 72.5t109.5 26.5h261v-750h-102v409l72 -72h-231q-62 0 -109.5 26.5t-74.5 73t-27 107.5zM585 0v750h102v-750h-102z" />
<glyph unicode="&#xb7;" horiz-adv-x="274" d="M55 369q0 23 11 41.5t29.5 29.5t41.5 11t41.5 -11t29.5 -29.5t11 -41.5t-11 -41.5t-29.5 -29.5t-41.5 -11t-41.5 11t-29.5 29.5t-11 41.5z" />
<glyph unicode="&#xb8;" horiz-adv-x="402" d="M31 -138h93q10 -13 29.5 -23.5t58.5 -10.5q33 0 50 10t17 29q0 16 -13.5 26.5t-45.5 10.5q-20 0 -34.5 -4.5t-25.5 -9.5h-78l75 118h77l-53 -81l-35 1q20 13 44 21t56 8q63 0 94 -25t31 -68t-41 -72.5t-118 -29.5q-69 0 -117.5 28.5t-63.5 71.5z" />
<glyph unicode="&#xb9;" horiz-adv-x="449" d="M56 409v85h364v-85h-364zM61 739v86l160 34h79v-400h-102v377l53 -59z" />
<glyph unicode="&#xba;" horiz-adv-x="610" d="M36 526q0 69 34 121t95 81.5t140 29.5q80 0 140.5 -29t94.5 -81t34 -122q0 -69 -34 -121.5t-94.5 -81.5t-140.5 -29t-140.5 29t-94.5 81.5t-34 121.5zM153 526q0 -66 41 -103.5t111 -37.5t111 38t41 103q0 66 -41 103.5t-111 37.5t-111 -37.5t-41 -103.5z" />
<glyph unicode="&#xbb;" horiz-adv-x="619" d="M48 86l168 249v-44l-168 249h135l151 -227l-151 -227h-135zM286 86l168 249v-44l-168 249h135l151 -227l-151 -227h-135z" />
<glyph unicode="&#xbc;" horiz-adv-x="1075" d="M43 300v85h364v-85h-364zM48 630v86l160 34h79v-400h-102v377l53 -59zM304 0l406 750h103l-407 -750h-102zM603 93v67l256 290h124v-450h-100v407l51 1l-240 -273l-18 36h381v-78h-454z" />
<glyph unicode="&#xbd;" horiz-adv-x="1136" d="M44 300v85h364v-85h-364zM49 630v86l160 34h79v-400h-102v377l53 -59zM297 0l406 750h103l-407 -750h-102zM656 304q4 44 32.5 79t77.5 55.5t115 20.5q68 0 113 -19t67.5 -52t22.5 -75q0 -40 -18.5 -71t-55 -58.5t-90.5 -58.5l-136 -77l-59 37h368v-85h-434v66l171 96 q45 25 78 48t51 46.5t18 50.5q0 30 -25 49t-77 19q-50 0 -79 -20t-34 -51h-106z" />
<glyph unicode="&#xbe;" horiz-adv-x="1162" d="M39 462h106q6 -45 42.5 -64t97.5 -19q59 0 91 12.5t32 46.5q0 24 -20 39t-77 15h-85v71h85q34 0 53 8t27 21t8 26q0 24 -23 38.5t-83 14.5q-62 0 -95.5 -19.5t-38.5 -57.5h-106q7 75 72 120t173 45q104 0 157.5 -35.5t53.5 -93.5q0 -49 -46 -78t-138 -28v15 q75 1 117.5 -13.5t60.5 -39t18 -55.5q0 -60 -56.5 -100t-173.5 -40q-76 0 -132 22t-87 61t-33 88zM386 0l406 750h103l-407 -750h-102zM686 93v67l256 290h124v-450h-100v407l51 1l-240 -273l-18 36h381v-78h-454z" />
<glyph unicode="&#xbf;" horiz-adv-x="650" d="M24 53q0 50 30 94t87 74l81 43q29 16 44.5 33.5t15.5 44.5v32h111q3 -10 4 -20.5t1 -20.5q0 -46 -25 -78.5t-78 -61.5l-76 -41q-31 -16 -50 -40t-19 -52q0 -56 46 -89t125 -33q80 0 130 36.5t57 100.5h126q-9 -115 -91.5 -179.5t-221.5 -64.5t-218 59t-79 163zM259 526 q0 34 22.5 55.5t58.5 21.5q35 0 58 -21.5t23 -55.5t-23 -55.5t-58 -21.5q-36 0 -58.5 21.5t-22.5 55.5z" />
<glyph unicode="&#xc0;" horiz-adv-x="899" d="M7 0l360 750h165l360 -750h-141l-327 700h51l-327 -700h-141zM184 172v109h524v-109h-524zM226 963h154l146 -152h-136z" />
<glyph unicode="&#xc1;" horiz-adv-x="899" d="M7 0l360 750h165l360 -750h-141l-327 700h51l-327 -700h-141zM184 172v109h524v-109h-524zM359 811l146 152h154l-164 -152h-136z" />
<glyph unicode="&#xc2;" horiz-adv-x="899" d="M7 0l360 750h165l360 -750h-141l-327 700h51l-327 -700h-141zM184 172v109h524v-109h-524zM229 811l147 152h146l148 -152h-119l-130 104h56l-130 -104h-118z" />
<glyph unicode="&#xc3;" horiz-adv-x="899" d="M7 0l360 750h165l360 -750h-141l-327 700h51l-327 -700h-141zM184 172v109h524v-109h-524zM212 818q7 65 42 104.5t99 39.5q27 0 53 -8.5t50.5 -19t46 -19t39.5 -8.5q23 0 37 13.5t17 38.5h91q-7 -65 -42.5 -104.5t-98.5 -39.5q-27 0 -53 8.5t-50 19t-46 19t-40 8.5 q-22 0 -36.5 -13.5t-17.5 -38.5h-91z" />
<glyph unicode="&#xc4;" horiz-adv-x="899" d="M7 0l360 750h165l360 -750h-141l-327 700h51l-327 -700h-141zM184 172v109h524v-109h-524zM221 897q0 32 22.5 51.5t58.5 19.5t58.5 -19.5t22.5 -51.5t-22.5 -52t-58.5 -20t-58.5 20t-22.5 52zM516 897q0 32 22.5 51.5t58.5 19.5t58.5 -19.5t22.5 -51.5t-22.5 -52 t-58.5 -20t-58.5 20t-22.5 52z" />
<glyph unicode="&#xc5;" horiz-adv-x="899" d="M7 0l360 750h165l360 -750h-141l-327 700h51l-327 -700h-141zM184 172v109h524v-109h-524zM287 913q0 54 43.5 85t119.5 31q77 0 120 -31t43 -85q0 -53 -43 -84t-120 -31q-76 0 -119.5 31t-43.5 84zM366 913q0 -24 21 -37t63 -13t63 13t21 37q0 25 -21 38t-63 13t-63 -13 t-21 -38z" />
<glyph unicode="&#xc6;" horiz-adv-x="1248" d="M10 0l336 750h829v-114h-591l87 -206h480v-110h-433l88 -206h410v-114h-499l-306 721h55l-315 -721h-141zM173 172v109h506v-109h-506z" />
<glyph unicode="&#xc7;" horiz-adv-x="912" d="M45 375q0 116 53 203.5t148 136.5t221 49q113 0 201 -39t142.5 -109t64.5 -163h-133q-11 60 -47.5 103t-94.5 66.5t-134 23.5q-88 0 -152.5 -33t-99.5 -94t-35 -144t35 -144t99.5 -94t152.5 -33q76 0 134 23t94.5 66.5t47.5 103.5h133q-10 -92 -64.5 -162.5 t-142.5 -109.5t-201 -39q-126 0 -221 49t-148 136.5t-53 203.5zM305 -138h95q11 -15 31.5 -23.5t53.5 -8.5q36 0 53 11.5t17 27.5t-15 25t-44 9q-20 0 -36.5 -3t-27.5 -8h-75l76 120h74l-51 -84l-34 2q22 14 45 20.5t56 6.5q59 0 92 -24.5t33 -65.5q0 -45 -42.5 -73.5 t-120.5 -28.5q-69 0 -117.5 26t-62.5 71z" />
<glyph unicode="&#xc8;" horiz-adv-x="766" d="M58 0l60 375l-60 375h649v-114h-577l63 74l53 -335l-53 -335l-63 74h582v-114h-654zM159 320v110h524v-110h-524zM163 963h154l146 -152h-136z" />
<glyph unicode="&#xc9;" horiz-adv-x="766" d="M58 0l60 375l-60 375h649v-114h-577l63 74l53 -335l-53 -335l-63 74h582v-114h-654zM159 320v110h524v-110h-524zM296 811l146 152h154l-164 -152h-136z" />
<glyph unicode="&#xca;" horiz-adv-x="766" d="M58 0l60 375l-60 375h649v-114h-577l63 74l53 -335l-53 -335l-63 74h582v-114h-654zM159 320v110h524v-110h-524zM166 811l147 152h146l148 -152h-119l-130 104h56l-130 -104h-118z" />
<glyph unicode="&#xcb;" horiz-adv-x="766" d="M58 0l60 375l-60 375h649v-114h-577l63 74l53 -335l-53 -335l-63 74h582v-114h-654zM158 897q0 32 22.5 51.5t58.5 19.5t58.5 -19.5t22.5 -51.5t-22.5 -52t-58.5 -20t-58.5 20t-22.5 52zM159 320v110h524v-110h-524zM453 897q0 32 22.5 51.5t58.5 19.5t58.5 -19.5 t22.5 -51.5t-22.5 -52t-58.5 -20t-58.5 20t-22.5 52z" />
<glyph unicode="&#xcc;" horiz-adv-x="300" d="M-74 963h154l146 -152h-136zM84 0v750h132v-750h-132z" />
<glyph unicode="&#xcd;" horiz-adv-x="300" d="M59 811l146 152h154l-164 -152h-136zM84 0v750h132v-750h-132z" />
<glyph unicode="&#xce;" horiz-adv-x="300" d="M-32 811l112 152h140l112 -152h-102l-96 102h32l-96 -102h-102zM84 0v750h132v-750h-132z" />
<glyph unicode="&#xcf;" horiz-adv-x="300" d="M-18 897q0 32 19.5 51.5t51.5 19.5t51.5 -19.5t19.5 -51.5q0 -33 -19.5 -52.5t-51.5 -19.5t-51.5 19.5t-19.5 52.5zM84 0v750h132v-750h-132zM177 897q0 32 19.5 51.5t50.5 19.5q32 0 51.5 -19.5t19.5 -51.5q0 -33 -19.5 -52.5t-51.5 -19.5q-31 0 -50.5 19.5t-19.5 52.5z " />
<glyph unicode="&#xd0;" horiz-adv-x="929" d="M26 326v100h430v-100h-430zM117 0v750h339q128 0 224.5 -47t150.5 -131.5t54 -196.5t-54 -196.5t-150.5 -131.5t-224.5 -47h-339zM176 116h289q86 0 150.5 32.5t100 91t35.5 135.5q0 78 -35.5 136t-100 90.5t-150.5 32.5h-289l73 70v-658z" />
<glyph unicode="&#xd1;" horiz-adv-x="937" d="M84 0v750h172l523 -670l-54 -6v676h128v-750h-168l-526 676l53 6v-682h-128zM243 818q7 65 42 104.5t99 39.5q27 0 53 -8.5t50.5 -19t46 -19t39.5 -8.5q23 0 37 13.5t17 38.5h91q-7 -65 -42.5 -104.5t-98.5 -39.5q-27 0 -53 8.5t-50 19t-46 19t-40 8.5q-22 0 -36.5 -13.5 t-17.5 -38.5h-91z" />
<glyph unicode="&#xd2;" horiz-adv-x="948" d="M44 375q0 116 54 203.5t151 136.5t225 49t225 -49t151 -136.5t54 -203.5t-54 -203.5t-151 -136.5t-225 -49t-225 49t-151 136.5t-54 203.5zM178 375q0 -83 36.5 -144t103 -94t156.5 -33q91 0 157 33t102.5 94t36.5 144t-36.5 144t-102.5 94t-157 33q-90 0 -156.5 -33 t-103 -94t-36.5 -144zM250 963h154l146 -152h-136z" />
<glyph unicode="&#xd3;" horiz-adv-x="948" d="M44 375q0 116 54 203.5t151 136.5t225 49t225 -49t151 -136.5t54 -203.5t-54 -203.5t-151 -136.5t-225 -49t-225 49t-151 136.5t-54 203.5zM178 375q0 -83 36.5 -144t103 -94t156.5 -33q91 0 157 33t102.5 94t36.5 144t-36.5 144t-102.5 94t-157 33q-90 0 -156.5 -33 t-103 -94t-36.5 -144zM383 811l146 152h154l-164 -152h-136z" />
<glyph unicode="&#xd4;" horiz-adv-x="948" d="M44 375q0 116 54 203.5t151 136.5t225 49t225 -49t151 -136.5t54 -203.5t-54 -203.5t-151 -136.5t-225 -49t-225 49t-151 136.5t-54 203.5zM178 375q0 -83 36.5 -144t103 -94t156.5 -33q91 0 157 33t102.5 94t36.5 144t-36.5 144t-102.5 94t-157 33q-90 0 -156.5 -33 t-103 -94t-36.5 -144zM253 811l147 152h146l148 -152h-119l-130 104h56l-130 -104h-118z" />
<glyph unicode="&#xd5;" horiz-adv-x="948" d="M44 375q0 116 54 203.5t151 136.5t225 49t225 -49t151 -136.5t54 -203.5t-54 -203.5t-151 -136.5t-225 -49t-225 49t-151 136.5t-54 203.5zM178 375q0 -83 36.5 -144t103 -94t156.5 -33q91 0 157 33t102.5 94t36.5 144t-36.5 144t-102.5 94t-157 33q-90 0 -156.5 -33 t-103 -94t-36.5 -144zM236 818q7 65 42 104.5t99 39.5q27 0 53 -8.5t50.5 -19t46 -19t39.5 -8.5q23 0 37 13.5t17 38.5h91q-7 -65 -42.5 -104.5t-98.5 -39.5q-27 0 -53 8.5t-50 19t-46 19t-40 8.5q-22 0 -36.5 -13.5t-17.5 -38.5h-91z" />
<glyph unicode="&#xd6;" horiz-adv-x="948" d="M44 375q0 116 54 203.5t151 136.5t225 49t225 -49t151 -136.5t54 -203.5t-54 -203.5t-151 -136.5t-225 -49t-225 49t-151 136.5t-54 203.5zM178 375q0 -83 36.5 -144t103 -94t156.5 -33q91 0 157 33t102.5 94t36.5 144t-36.5 144t-102.5 94t-157 33q-90 0 -156.5 -33 t-103 -94t-36.5 -144zM245 897q0 32 22.5 51.5t58.5 19.5t58.5 -19.5t22.5 -51.5t-22.5 -52t-58.5 -20t-58.5 20t-22.5 52zM540 897q0 32 22.5 51.5t58.5 19.5t58.5 -19.5t22.5 -51.5t-22.5 -52t-58.5 -20t-58.5 20t-22.5 52z" />
<glyph unicode="&#xd7;" d="M77 184l396 396l71 -70l-396 -396zM77 510l71 70l396 -396l-71 -70z" />
<glyph unicode="&#xd8;" horiz-adv-x="947" d="M44 375q0 116 54 203.5t150.5 136.5t224.5 49q92 0 170.5 -28t136.5 -79.5t90.5 -123t32.5 -158.5q0 -116 -54 -203.5t-151 -136.5t-225 -49t-224.5 49t-150.5 136.5t-54 203.5zM64 -14l686 778h133l-686 -778h-133zM178 375q0 -83 36 -144t102.5 -94t156.5 -33 q91 0 157 33t102.5 94t36.5 144t-36.5 144t-102.5 94t-157 33q-90 0 -156.5 -33t-102.5 -94t-36 -144z" />
<glyph unicode="&#xd9;" horiz-adv-x="862" d="M74 317v433h132v-428q0 -67 27 -116t77.5 -75.5t120.5 -26.5q71 0 121 26.5t77 75.5t27 116v428h132v-433q0 -99 -45 -173.5t-125 -116t-187 -41.5q-106 0 -186.5 41.5t-125.5 116t-45 173.5zM207 963h154l146 -152h-136z" />
<glyph unicode="&#xda;" horiz-adv-x="862" d="M74 317v433h132v-428q0 -67 27 -116t77.5 -75.5t120.5 -26.5q71 0 121 26.5t77 75.5t27 116v428h132v-433q0 -99 -45 -173.5t-125 -116t-187 -41.5q-106 0 -186.5 41.5t-125.5 116t-45 173.5zM340 811l146 152h154l-164 -152h-136z" />
<glyph unicode="&#xdb;" horiz-adv-x="862" d="M74 317v433h132v-428q0 -67 27 -116t77.5 -75.5t120.5 -26.5q71 0 121 26.5t77 75.5t27 116v428h132v-433q0 -99 -45 -173.5t-125 -116t-187 -41.5q-106 0 -186.5 41.5t-125.5 116t-45 173.5zM210 811l147 152h146l148 -152h-119l-130 104h56l-130 -104h-118z" />
<glyph unicode="&#xdc;" horiz-adv-x="862" d="M74 317v433h132v-428q0 -67 27 -116t77.5 -75.5t120.5 -26.5q71 0 121 26.5t77 75.5t27 116v428h132v-433q0 -99 -45 -173.5t-125 -116t-187 -41.5q-106 0 -186.5 41.5t-125.5 116t-45 173.5zM202 897q0 32 22.5 51.5t58.5 19.5t58.5 -19.5t22.5 -51.5t-22.5 -52 t-58.5 -20t-58.5 20t-22.5 52zM497 897q0 32 22.5 51.5t58.5 19.5t58.5 -19.5t22.5 -51.5t-22.5 -52t-58.5 -20t-58.5 20t-22.5 52z" />
<glyph unicode="&#xdd;" horiz-adv-x="871" d="M16 750h149l306 -384h-71l306 384h149l-377 -473l-84 -1zM345 811l146 152h154l-164 -152h-136zM370 0v358h132v-358h-132z" />
<glyph unicode="&#xde;" horiz-adv-x="793" d="M84 0v750h132v-750h-132zM172 143v114h303q68 0 107 33t39 90q0 56 -39 89.5t-107 33.5h-302v114h308q84 0 145.5 -29.5t95 -83t33.5 -124.5t-33.5 -124.5t-95 -83t-145.5 -29.5h-309z" />
<glyph unicode="&#xdf;" horiz-adv-x="832" d="M69 0v495q0 88 40.5 152.5t115.5 100.5t178 36t167.5 -27t94.5 -72t30 -101q0 -77 -55 -125.5t-164 -57.5l17 20q158 0 231.5 -56t73.5 -153q0 -66 -33.5 -117t-98.5 -80t-159 -29q-60 0 -115 10t-114 31v107q63 -25 113.5 -35.5t96.5 -10.5q92 0 135 35t43 93 q0 38 -21 69t-73.5 49t-145.5 18h-61v98h47q77 0 116.5 31.5t39.5 80.5q0 56 -46.5 88t-124.5 32q-92 0 -145 -47.5t-53 -128.5v-506h-130z" />
<glyph unicode="&#xe0;" horiz-adv-x="787" d="M39 283q0 89 36 155.5t100 104t147 37.5q79 0 143.5 -37t109 -103.5t62.5 -156.5q-19 -89 -63 -156t-108.5 -104t-143.5 -37q-83 0 -147 37.5t-100 104.5t-36 155zM171 283q0 -57 23.5 -100.5t64.5 -68t94 -24.5q54 0 100 24.5t81.5 68t56.5 100.5q-21 57 -56.5 100.5 t-81.5 68t-100 24.5q-53 0 -94 -24.5t-64.5 -68t-23.5 -100.5zM210 799h130l122 -172h-125zM575 210l26 73l-26 72l22 211h134l-30 -283l30 -283h-134z" />
<glyph unicode="&#xe1;" horiz-adv-x="787" d="M39 283q0 89 36 155.5t100 104t147 37.5q79 0 143.5 -37t109 -103.5t62.5 -156.5q-19 -89 -63 -156t-108.5 -104t-143.5 -37q-83 0 -147 37.5t-100 104.5t-36 155zM171 283q0 -57 23.5 -100.5t64.5 -68t94 -24.5q54 0 100 24.5t81.5 68t56.5 100.5q-21 57 -56.5 100.5 t-81.5 68t-100 24.5q-53 0 -94 -24.5t-64.5 -68t-23.5 -100.5zM310 627l122 172h130l-127 -172h-125zM575 210l26 73l-26 72l22 211h134l-30 -283l30 -283h-134z" />
<glyph unicode="&#xe2;" horiz-adv-x="787" d="M39 283q0 89 36 155.5t100 104t147 37.5q79 0 143.5 -37t109 -103.5t62.5 -156.5q-19 -89 -63 -156t-108.5 -104t-143.5 -37q-83 0 -147 37.5t-100 104.5t-36 155zM171 283q0 -57 23.5 -100.5t64.5 -68t94 -24.5q54 0 100 24.5t81.5 68t56.5 100.5q-21 57 -56.5 100.5 t-81.5 68t-100 24.5q-53 0 -94 -24.5t-64.5 -68t-23.5 -100.5zM173 627l143 172h140l143 -172h-111l-130 131h56l-129 -131h-112zM575 210l26 73l-26 72l22 211h134l-30 -283l30 -283h-134z" />
<glyph unicode="&#xe3;" horiz-adv-x="787" d="M39 283q0 89 36 155.5t100 104t147 37.5q79 0 143.5 -37t109 -103.5t62.5 -156.5q-19 -89 -63 -156t-108.5 -104t-143.5 -37q-83 0 -147 37.5t-100 104.5t-36 155zM159 641q5 73 37.5 116t93.5 43q26 0 50.5 -9t47 -20t42.5 -20t37 -9q22 0 36.5 15t18.5 42h91 q-4 -69 -36 -113.5t-95 -44.5q-26 0 -50.5 9t-47 20t-42 20t-36.5 9q-22 0 -36.5 -15t-19.5 -43h-91zM171 283q0 -57 23.5 -100.5t64.5 -68t94 -24.5q54 0 100 24.5t81.5 68t56.5 100.5q-21 57 -56.5 100.5t-81.5 68t-100 24.5q-53 0 -94 -24.5t-64.5 -68t-23.5 -100.5z M575 210l26 73l-26 72l22 211h134l-30 -283l30 -283h-134z" />
<glyph unicode="&#xe4;" horiz-adv-x="787" d="M39 283q0 89 36 155.5t100 104t147 37.5q79 0 143.5 -37t109 -103.5t62.5 -156.5q-19 -89 -63 -156t-108.5 -104t-143.5 -37q-83 0 -147 37.5t-100 104.5t-36 155zM159 713q0 32 22.5 51.5t58.5 19.5t58.5 -19.5t22.5 -51.5q0 -33 -22.5 -52.5t-58.5 -19.5t-58.5 19.5 t-22.5 52.5zM171 283q0 -57 23.5 -100.5t64.5 -68t94 -24.5q54 0 100 24.5t81.5 68t56.5 100.5q-21 57 -56.5 100.5t-81.5 68t-100 24.5q-53 0 -94 -24.5t-64.5 -68t-23.5 -100.5zM452 713q0 32 22.5 51.5t58.5 19.5q35 0 57.5 -19.5t22.5 -51.5q0 -33 -22.5 -52.5 t-57.5 -19.5q-36 0 -58.5 19.5t-22.5 52.5zM575 210l26 73l-26 72l22 211h134l-30 -283l30 -283h-134z" />
<glyph unicode="&#xe5;" horiz-adv-x="787" d="M39 283q0 89 36 155.5t100 104t147 37.5q79 0 143.5 -37t109 -103.5t62.5 -156.5q-19 -89 -63 -156t-108.5 -104t-143.5 -37q-83 0 -147 37.5t-100 104.5t-36 155zM171 283q0 -57 23.5 -100.5t64.5 -68t94 -24.5q54 0 100 24.5t81.5 68t56.5 100.5q-21 57 -56.5 100.5 t-81.5 68t-100 24.5q-53 0 -94 -24.5t-64.5 -68t-23.5 -100.5zM227 739q0 56 43 89t116 33q74 0 116 -33t42 -89t-42 -89t-116 -33q-73 0 -116 33t-43 89zM307 739q0 -28 21 -43.5t58 -15.5q38 0 58.5 15.5t20.5 43.5q0 29 -20.5 44.5t-58.5 15.5q-37 0 -58 -15.5t-21 -44.5 zM575 210l26 73l-26 72l22 211h134l-30 -283l30 -283h-134z" />
<glyph unicode="&#xe6;" horiz-adv-x="1253" d="M39 283q0 89 36 155.5t100 104t147 37.5q79 0 143.5 -37t109 -103.5t62.5 -156.5q-19 -89 -63 -156t-108.5 -104t-143.5 -37q-83 0 -147 37.5t-100 104.5t-36 155zM171 283q0 -57 23.5 -100.5t64.5 -68t94 -24.5q54 0 100 24.5t81.5 68t56.5 100.5q-21 57 -56.5 100.5 t-81.5 68t-100 24.5q-53 0 -94 -24.5t-64.5 -68t-23.5 -100.5zM573 210l26 73l-26 72l10 211h97l10 -281l-10 -285h-97zM627 283q0 87 36 154t102.5 105t156.5 38q95 0 160.5 -44.5t99.5 -120.5t32 -170h-522v90h458l-53 -44q-3 58 -25 100.5t-63 65.5t-102 23 q-54 0 -96.5 -22.5t-66.5 -64.5t-24 -101q0 -64 27 -109.5t79.5 -70t127.5 -24.5q62 0 124 19t121 59v-94q-34 -26 -74.5 -45.5t-86 -30t-95.5 -10.5q-95 0 -166 38.5t-110.5 105.5t-39.5 153z" />
<glyph unicode="&#xe7;" horiz-adv-x="724" d="M37 283q0 88 42 155t116.5 104.5t172.5 37.5q86 0 156 -30t115 -83.5t55 -124.5h-131q-14 64 -67 100t-128 36q-60 0 -105 -23.5t-69.5 -67t-24.5 -104.5q0 -60 24.5 -104t69.5 -67.5t105 -23.5q76 0 129 37t66 98h131q-10 -70 -55 -123.5t-115 -83.5t-156 -30 q-98 0 -172.5 37.5t-116.5 104.5t-42 155zM209 -138h93q10 -13 29.5 -23.5t58.5 -10.5q33 0 50 10t17 29q0 16 -13.5 26.5t-45.5 10.5q-20 0 -34.5 -4.5t-25.5 -9.5h-78l75 118h77l-53 -81l-35 1q20 13 44 21t56 8q63 0 94 -25t31 -68t-41 -72.5t-118 -29.5 q-69 0 -117.5 28.5t-63.5 71.5z" />
<glyph unicode="&#xe8;" horiz-adv-x="710" d="M37 284q0 88 41.5 154.5t115 104t168.5 37.5t164.5 -42.5t107.5 -119.5t38 -181h-533v99h468l-65 -37q-3 56 -26.5 96t-63 61.5t-93.5 21.5q-57 0 -99.5 -23t-66.5 -64.5t-24 -98.5q0 -63 28.5 -109t81 -70.5t124.5 -24.5q65 0 133 20.5t120 57.5v-94q-52 -40 -126.5 -63 t-151.5 -23q-99 0 -176 37.5t-121 104.5t-44 156zM183 799h130l122 -172h-125z" />
<glyph unicode="&#xe9;" horiz-adv-x="710" d="M37 284q0 88 41.5 154.5t115 104t168.5 37.5t164.5 -42.5t107.5 -119.5t38 -181h-533v99h468l-65 -37q-3 56 -26.5 96t-63 61.5t-93.5 21.5q-57 0 -99.5 -23t-66.5 -64.5t-24 -98.5q0 -63 28.5 -109t81 -70.5t124.5 -24.5q65 0 133 20.5t120 57.5v-94q-52 -40 -126.5 -63 t-151.5 -23q-99 0 -176 37.5t-121 104.5t-44 156zM283 627l122 172h130l-127 -172h-125z" />
<glyph unicode="&#xea;" horiz-adv-x="710" d="M37 284q0 88 41.5 154.5t115 104t168.5 37.5t164.5 -42.5t107.5 -119.5t38 -181h-533v99h468l-65 -37q-3 56 -26.5 96t-63 61.5t-93.5 21.5q-57 0 -99.5 -23t-66.5 -64.5t-24 -98.5q0 -63 28.5 -109t81 -70.5t124.5 -24.5q65 0 133 20.5t120 57.5v-94q-52 -40 -126.5 -63 t-151.5 -23q-99 0 -176 37.5t-121 104.5t-44 156zM146 627l143 172h140l143 -172h-111l-130 131h56l-129 -131h-112z" />
<glyph unicode="&#xeb;" horiz-adv-x="710" d="M37 284q0 88 41.5 154.5t115 104t168.5 37.5t164.5 -42.5t107.5 -119.5t38 -181h-533v99h468l-65 -37q-3 56 -26.5 96t-63 61.5t-93.5 21.5q-57 0 -99.5 -23t-66.5 -64.5t-24 -98.5q0 -63 28.5 -109t81 -70.5t124.5 -24.5q65 0 133 20.5t120 57.5v-94q-52 -40 -126.5 -63 t-151.5 -23q-99 0 -176 37.5t-121 104.5t-44 156zM132 713q0 32 22.5 51.5t58.5 19.5t58.5 -19.5t22.5 -51.5q0 -33 -22.5 -52.5t-58.5 -19.5t-58.5 19.5t-22.5 52.5zM425 713q0 32 22.5 51.5t58.5 19.5q35 0 57.5 -19.5t22.5 -51.5q0 -33 -22.5 -52.5t-57.5 -19.5 q-36 0 -58.5 19.5t-22.5 52.5z" />
<glyph unicode="&#xec;" horiz-adv-x="268" d="M-42 799h130l122 -172h-125zM69 0v570l65 -12l65 12v-570h-130z" />
<glyph unicode="&#xed;" horiz-adv-x="268" d="M58 627l122 172h130l-127 -172h-125zM69 0v570l65 -12l65 12v-570h-130z" />
<glyph unicode="&#xee;" horiz-adv-x="268" d="M-36 627l99 172h140l100 -172h-99l-87 126h32l-87 -126h-98zM69 0v570l65 -12l65 12v-570h-130z" />
<glyph unicode="&#xef;" horiz-adv-x="268" d="M-20 715q0 34 19 54t50 20q32 0 50.5 -20t18.5 -54t-18.5 -54t-50.5 -20q-31 0 -50 20t-19 54zM69 0v570l65 -12l65 12v-570h-130zM160 715q0 34 19.5 54t50.5 20t50 -20t19 -54t-19 -54t-50 -20t-50.5 20t-19.5 54z" />
<glyph unicode="&#xf0;" horiz-adv-x="765" d="M36 254q0 78 41.5 137t115.5 92t171 33q71 0 135 -23.5t116 -82.5l-26 -2q-31 70 -77 132.5t-105 118.5t-131 105l133 20q108 -80 178 -161.5t104 -166t34 -173.5q0 -81 -38.5 -148.5t-114 -108t-186.5 -40.5q-106 0 -184.5 34t-122 94.5t-43.5 139.5zM168 253 q0 -50 26 -87.5t74 -57.5t113 -20q66 0 114 20t74 57.5t26 87.5t-26 87t-74 57.5t-114 20.5q-65 0 -113 -20t-74 -57t-26 -88zM260 559v80l431 84v-80z" />
<glyph unicode="&#xf1;" horiz-adv-x="743" d="M42 566h130l34 -204v-362h-130v381zM152 641q5 73 37.5 116t93.5 43q26 0 50.5 -9t47 -20t42.5 -20t37 -9q22 0 36.5 15t18.5 42h91q-4 -69 -36 -113.5t-95 -44.5q-26 0 -50.5 9t-47 20t-42 20t-36.5 9q-22 0 -36.5 -15t-19.5 -43h-91zM160 301q9 88 46 150t95 95.5 t130 33.5q80 0 136 -32t85.5 -91.5t29.5 -143.5v-313h-130v292q0 89 -41.5 134.5t-121.5 45.5q-55 0 -96.5 -24.5t-64 -68.5t-22.5 -103z" />
<glyph unicode="&#xf2;" horiz-adv-x="764" d="M37 283q0 89 43.5 155.5t121 104t180.5 37.5t180.5 -37.5t121 -104t43.5 -155.5q0 -88 -43.5 -155t-121 -104.5t-180.5 -37.5t-180.5 37.5t-121 104.5t-43.5 155zM169 283q0 -60 26 -103.5t74 -67.5t113 -24q66 0 113.5 24t73.5 67.5t26 103.5t-26 103.5t-73.5 67.5 t-113.5 24q-65 0 -113 -24t-74 -67.5t-26 -103.5zM206 799h130l122 -172h-125z" />
<glyph unicode="&#xf3;" horiz-adv-x="764" d="M37 283q0 89 43.5 155.5t121 104t180.5 37.5t180.5 -37.5t121 -104t43.5 -155.5q0 -88 -43.5 -155t-121 -104.5t-180.5 -37.5t-180.5 37.5t-121 104.5t-43.5 155zM169 283q0 -60 26 -103.5t74 -67.5t113 -24q66 0 113.5 24t73.5 67.5t26 103.5t-26 103.5t-73.5 67.5 t-113.5 24q-65 0 -113 -24t-74 -67.5t-26 -103.5zM306 627l122 172h130l-127 -172h-125z" />
<glyph unicode="&#xf4;" horiz-adv-x="764" d="M37 283q0 89 43.5 155.5t121 104t180.5 37.5t180.5 -37.5t121 -104t43.5 -155.5q0 -88 -43.5 -155t-121 -104.5t-180.5 -37.5t-180.5 37.5t-121 104.5t-43.5 155zM169 283q0 -60 26 -103.5t74 -67.5t113 -24q66 0 113.5 24t73.5 67.5t26 103.5t-26 103.5t-73.5 67.5 t-113.5 24q-65 0 -113 -24t-74 -67.5t-26 -103.5zM169 627l143 172h140l143 -172h-111l-130 131h56l-129 -131h-112z" />
<glyph unicode="&#xf5;" horiz-adv-x="764" d="M37 283q0 89 43.5 155.5t121 104t180.5 37.5t180.5 -37.5t121 -104t43.5 -155.5q0 -88 -43.5 -155t-121 -104.5t-180.5 -37.5t-180.5 37.5t-121 104.5t-43.5 155zM155 641q5 73 37.5 116t93.5 43q26 0 50.5 -9t47 -20t42.5 -20t37 -9q22 0 36.5 15t18.5 42h91 q-4 -69 -36 -113.5t-95 -44.5q-26 0 -50.5 9t-47 20t-42 20t-36.5 9q-22 0 -36.5 -15t-19.5 -43h-91zM169 283q0 -60 26 -103.5t74 -67.5t113 -24q66 0 113.5 24t73.5 67.5t26 103.5t-26 103.5t-73.5 67.5t-113.5 24q-65 0 -113 -24t-74 -67.5t-26 -103.5z" />
<glyph unicode="&#xf6;" horiz-adv-x="764" d="M37 283q0 89 43.5 155.5t121 104t180.5 37.5t180.5 -37.5t121 -104t43.5 -155.5q0 -88 -43.5 -155t-121 -104.5t-180.5 -37.5t-180.5 37.5t-121 104.5t-43.5 155zM155 713q0 32 22.5 51.5t58.5 19.5t58.5 -19.5t22.5 -51.5q0 -33 -22.5 -52.5t-58.5 -19.5t-58.5 19.5 t-22.5 52.5zM169 283q0 -60 26 -103.5t74 -67.5t113 -24q66 0 113.5 24t73.5 67.5t26 103.5t-26 103.5t-73.5 67.5t-113.5 24q-65 0 -113 -24t-74 -67.5t-26 -103.5zM448 713q0 32 22.5 51.5t58.5 19.5q35 0 57.5 -19.5t22.5 -51.5q0 -33 -22.5 -52.5t-57.5 -19.5 q-36 0 -58.5 19.5t-22.5 52.5z" />
<glyph unicode="&#xf7;" d="M30 304v100h560v-100h-560zM227 158q0 31 20.5 51t52.5 20t52.5 -20t20.5 -51t-20.5 -51.5t-52.5 -20.5t-52.5 20.5t-20.5 51.5zM227 551q0 31 20.5 51t52.5 20t52.5 -20t20.5 -51t-20.5 -51.5t-52.5 -20.5t-52.5 20.5t-20.5 51.5z" />
<glyph unicode="&#xf8;" horiz-adv-x="764" d="M37 283q0 89 43.5 155.5t121 104t180.5 37.5t180.5 -37.5t121 -104t43.5 -155.5q0 -88 -43.5 -155t-121 -104.5t-180.5 -37.5t-180.5 37.5t-121 104.5t-43.5 155zM47 -29l546 624h124l-546 -624h-124zM163 283q0 -62 27 -107.5t76 -70.5t116 -25q68 0 117 25t75.5 70.5 t26.5 107.5t-26.5 107.5t-75.5 70.5t-117 25q-67 0 -116 -25t-76 -70.5t-27 -107.5z" />
<glyph unicode="&#xf9;" horiz-adv-x="732" d="M61 253v313h130v-293q0 -88 40.5 -133.5t116.5 -45.5q55 0 94.5 24t61.5 68.5t22 103.5l45 -25q-8 -87 -44 -149.5t-93 -96t-128 -33.5q-78 0 -132.5 32t-83.5 92t-29 143zM185 799h130l122 -172h-125zM526 204v362h130v-382l33 -184h-130z" />
<glyph unicode="&#xfa;" horiz-adv-x="732" d="M61 253v313h130v-293q0 -88 40.5 -133.5t116.5 -45.5q55 0 94.5 24t61.5 68.5t22 103.5l45 -25q-8 -87 -44 -149.5t-93 -96t-128 -33.5q-78 0 -132.5 32t-83.5 92t-29 143zM285 627l122 172h130l-127 -172h-125zM526 204v362h130v-382l33 -184h-130z" />
<glyph unicode="&#xfb;" horiz-adv-x="732" d="M61 253v313h130v-293q0 -88 40.5 -133.5t116.5 -45.5q55 0 94.5 24t61.5 68.5t22 103.5l45 -25q-8 -87 -44 -149.5t-93 -96t-128 -33.5q-78 0 -132.5 32t-83.5 92t-29 143zM148 627l143 172h140l143 -172h-111l-130 131h56l-129 -131h-112zM526 204v362h130v-382l33 -184 h-130z" />
<glyph unicode="&#xfc;" horiz-adv-x="732" d="M61 253v313h130v-293q0 -88 40.5 -133.5t116.5 -45.5q55 0 94.5 24t61.5 68.5t22 103.5l45 -25q-8 -87 -44 -149.5t-93 -96t-128 -33.5q-78 0 -132.5 32t-83.5 92t-29 143zM134 713q0 32 22.5 51.5t58.5 19.5t58.5 -19.5t22.5 -51.5q0 -33 -22.5 -52.5t-58.5 -19.5 t-58.5 19.5t-22.5 52.5zM427 713q0 32 22.5 51.5t58.5 19.5q35 0 57.5 -19.5t22.5 -51.5q0 -33 -22.5 -52.5t-57.5 -19.5q-36 0 -58.5 19.5t-22.5 52.5zM526 204v362h130v-382l33 -184h-130z" />
<glyph unicode="&#xfd;" horiz-adv-x="715" d="M10 566h143l246 -548h-129zM39 -33q38 -24 72.5 -35t77.5 -11q41 0 73 18.5t53 64.5l255 562h138l-293 -606q-24 -50 -56.5 -80.5t-71 -44.5t-82.5 -14q-50 0 -90.5 12.5t-75.5 34.5v99zM290 627l122 172h130l-127 -172h-125z" />
<glyph unicode="&#xfe;" horiz-adv-x="786" d="M69 -165v935h130v-401l-6 -20v-114l6 -35v-365h-130zM149 283q19 90 63 156.5t108.5 103.5t143.5 37q83 0 147 -37.5t100 -104t36 -155.5q0 -88 -36 -155t-100 -104.5t-147 -37.5q-79 0 -143 37t-108.5 104t-63.5 156zM195 283q22 -57 57 -100.5t81.5 -68t99.5 -24.5 t94 24.5t64.5 68t23.5 100.5t-23.5 100.5t-64.5 68t-94 24.5t-99.5 -24.5t-81.5 -68t-57 -100.5z" />
<glyph unicode="&#xff;" horiz-adv-x="715" d="M10 566h143l246 -548h-129zM39 -33q38 -24 72.5 -35t77.5 -11q41 0 73 18.5t53 64.5l255 562h138l-293 -606q-24 -50 -56.5 -80.5t-71 -44.5t-82.5 -14q-50 0 -90.5 12.5t-75.5 34.5v99zM139 713q0 32 22.5 51.5t58.5 19.5t58.5 -19.5t22.5 -51.5q0 -33 -22.5 -52.5 t-58.5 -19.5t-58.5 19.5t-22.5 52.5zM432 713q0 32 22.5 51.5t58.5 19.5q35 0 57.5 -19.5t22.5 -51.5q0 -33 -22.5 -52.5t-57.5 -19.5q-36 0 -58.5 19.5t-22.5 52.5z" />
<glyph unicode="&#x152;" horiz-adv-x="1346" d="M44 375q0 112 52.5 196.5t147.5 131.5t223 47h820v-114h-486v-205h461v-110h-461v-207h491v-114h-819q-128 0 -224.5 47t-150.5 131.5t-54 196.5zM178 375q0 -77 36 -135.5t101 -91t151 -32.5h205v518h-205q-86 0 -151 -32.5t-101 -90.5t-36 -136z" />
<glyph unicode="&#x153;" horiz-adv-x="1241" d="M37 283q0 89 42.5 155.5t118 104t173.5 37.5q99 0 172 -37t113 -103.5t40 -156.5t-40 -156.5t-113 -103.5t-172 -37q-98 0 -173.5 37.5t-118 104.5t-42.5 155zM169 283q0 -60 25.5 -103.5t72 -67.5t109.5 -24q64 0 110 24t71.5 67.5t25.5 103.5t-25.5 103.5t-71.5 67.5 t-110 24q-63 0 -109.5 -24t-72 -67.5t-25.5 -103.5zM597 284q0 86 39 153t108 105t159 38q91 0 158 -42.5t104.5 -118t37.5 -174.5h-520v90h456l-56 -36q-3 55 -25.5 95.5t-61.5 63t-93 22.5q-52 0 -95.5 -22t-69 -63.5t-25.5 -102.5q0 -65 29.5 -110.5t81 -69.5t117.5 -24 t130 20.5t116 57.5v-94q-49 -37 -123.5 -61.5t-151.5 -24.5q-94 0 -165 36.5t-110.5 103.5t-39.5 158z" />
<glyph unicode="&#x178;" horiz-adv-x="871" d="M16 750h149l306 -384h-71l306 384h149l-377 -473l-84 -1zM207 897q0 32 22.5 51.5t58.5 19.5t58.5 -19.5t22.5 -51.5t-22.5 -52t-58.5 -20t-58.5 20t-22.5 52zM370 0v358h132v-358h-132zM502 897q0 32 22.5 51.5t58.5 19.5t58.5 -19.5t22.5 -51.5t-22.5 -52t-58.5 -20 t-58.5 20t-22.5 52z" />
<glyph unicode="&#x2c6;" horiz-adv-x="490" d="M32 627l143 172h140l143 -172h-111l-130 131h56l-129 -131h-112z" />
<glyph unicode="&#x2dc;" horiz-adv-x="506" d="M26 641q5 73 37.5 116t93.5 43q26 0 50.5 -9t47 -20t42.5 -20t37 -9q22 0 36.5 15t18.5 42h91q-4 -69 -36 -113.5t-95 -44.5q-26 0 -50.5 9t-47 20t-42 20t-36.5 9q-22 0 -36.5 -15t-19.5 -43h-91z" />
<glyph unicode="&#x2000;" horiz-adv-x="514" />
<glyph unicode="&#x2001;" horiz-adv-x="1029" />
<glyph unicode="&#x2002;" horiz-adv-x="514" />
<glyph unicode="&#x2003;" horiz-adv-x="1029" />
<glyph unicode="&#x2004;" horiz-adv-x="343" />
<glyph unicode="&#x2005;" horiz-adv-x="257" />
<glyph unicode="&#x2006;" horiz-adv-x="171" />
<glyph unicode="&#x2007;" horiz-adv-x="171" />
<glyph unicode="&#x2008;" horiz-adv-x="128" />
<glyph unicode="&#x2009;" horiz-adv-x="205" />
<glyph unicode="&#x200a;" horiz-adv-x="57" />
<glyph unicode="&#x2010;" horiz-adv-x="351" d="M59 298v107h233v-107h-233z" />
<glyph unicode="&#x2011;" horiz-adv-x="351" d="M59 298v107h233v-107h-233z" />
<glyph unicode="&#x2012;" horiz-adv-x="351" d="M59 298v107h233v-107h-233z" />
<glyph unicode="&#x2013;" horiz-adv-x="645" d="M59 302v100h527v-100h-527z" />
<glyph unicode="&#x2014;" horiz-adv-x="1162" d="M59 302v100h527v-100h-527zM576 302v100h527v-100h-527z" />
<glyph unicode="&#x2018;" horiz-adv-x="252" d="M40 547q0 23 9.5 48t34.5 65l54 90h70l-80 -174l-7 47q23 0 41 -11t29 -28.5t11 -39.5t-11 -40t-29 -28.5t-41 -10.5q-22 0 -40.5 10.5t-29.5 29.5t-11 42z" />
<glyph unicode="&#x2019;" horiz-adv-x="257" d="M55 473l80 174l7 -47q-22 0 -40.5 11t-29.5 29t-11 39q0 22 11 40t29.5 28.5t40.5 10.5q23 0 41 -10.5t29 -29t11 -42.5q0 -22 -9.5 -47t-34.5 -66l-54 -90h-70z" />
<glyph unicode="&#x201a;" horiz-adv-x="259" d="M42 -130l80 174l7 -47q-22 0 -40.5 11t-29.5 29t-11 39q0 22 11 40t29.5 28.5t40.5 10.5q23 0 41 -10.5t29 -29t11 -42.5q0 -22 -9.5 -47t-34.5 -66l-54 -90h-70z" />
<glyph unicode="&#x201c;" horiz-adv-x="461" d="M40 547q0 23 9.5 48t34.5 65l54 90h70l-80 -174l-7 47q23 0 41 -11t29 -28.5t11 -39.5t-11 -40t-29 -28.5t-41 -10.5q-22 0 -40.5 10.5t-29.5 29.5t-11 42zM249 547q0 23 9.5 48t34.5 65l54 90h70l-80 -174l-7 47q23 0 41 -11t29 -28.5t11 -39.5t-11 -40t-29 -28.5 t-41 -10.5q-22 0 -40.5 10.5t-29.5 29.5t-11 42z" />
<glyph unicode="&#x201d;" horiz-adv-x="466" d="M55 473l80 174l7 -47q-22 0 -40.5 11t-29.5 29t-11 39q0 22 11 40t29.5 28.5t40.5 10.5q23 0 41 -10.5t29 -29t11 -42.5q0 -22 -9.5 -47t-34.5 -66l-54 -90h-70zM264 473l80 174l7 -47q-22 0 -40.5 11t-29.5 29t-11 39q0 22 11 40t29.5 28.5t40.5 10.5q23 0 41 -10.5 t29 -29t11 -42.5q0 -22 -9.5 -47t-34.5 -66l-54 -90h-70z" />
<glyph unicode="&#x201e;" horiz-adv-x="468" d="M42 -130l80 174l7 -47q-22 0 -40.5 11t-29.5 29t-11 39q0 22 11 40t29.5 28.5t40.5 10.5q23 0 41 -10.5t29 -29t11 -42.5q0 -22 -9.5 -47t-34.5 -66l-54 -90h-70zM251 -130l80 174l7 -47q-22 0 -40.5 11t-29.5 29t-11 39q0 22 11 40t29.5 28.5t40.5 10.5q23 0 41 -10.5 t29 -29t11 -42.5q0 -22 -9.5 -47t-34.5 -66l-54 -90h-70z" />
<glyph unicode="&#x2022;" horiz-adv-x="376" d="M66 375q0 35 16 62.5t44 43.5t62 16q35 0 62.5 -16t43.5 -43.5t16 -62.5q0 -34 -16 -62t-43.5 -44t-62.5 -16q-34 0 -62 16t-44 44t-16 62z" />
<glyph unicode="&#x2026;" horiz-adv-x="711" d="M47 74q0 23 11 41.5t29.5 29.5t41.5 11t41.5 -11t29.5 -29.5t11 -41.5t-11 -41.5t-29.5 -29.5t-41.5 -11t-41.5 11t-29.5 29.5t-11 41.5zM274 74q0 23 11 41.5t29.5 29.5t41.5 11t41.5 -11t29.5 -29.5t11 -41.5t-11 -41.5t-29.5 -29.5t-41.5 -11t-41.5 11t-29.5 29.5 t-11 41.5zM500 74q0 23 11 41.5t29.5 29.5t41.5 11t41.5 -11t29.5 -29.5t11 -41.5t-11 -41.5t-29.5 -29.5t-41.5 -11t-41.5 11t-29.5 29.5t-11 41.5z" />
<glyph unicode="&#x202f;" horiz-adv-x="205" />
<glyph unicode="&#x2039;" horiz-adv-x="381" d="M47 313l151 227h135l-168 -249v44l168 -249h-135z" />
<glyph unicode="&#x203a;" horiz-adv-x="381" d="M48 86l168 249v-44l-168 249h135l151 -227l-151 -227h-135z" />
<glyph unicode="&#x205f;" horiz-adv-x="257" />
<glyph unicode="&#x20ac;" horiz-adv-x="856" d="M62 244v88h583v-88h-583zM62 418v88h583v-88h-583zM153 373q0 116 53 203.5t148 136.5t221 49q65 0 123 -11t103 -31v-112q-45 23 -100 35.5t-113 12.5q-94 0 -161.5 -34t-103.5 -97t-36 -152q0 -88 36 -151.5t103.5 -97.5t161.5 -34q57 0 112.5 12.5t100.5 35.5v-112 q-45 -20 -102.5 -31t-122.5 -11q-127 0 -222.5 49t-148 136.5t-52.5 203.5z" />
<glyph unicode="&#x2122;" horiz-adv-x="1028" d="M23 670v80h370v-80h-370zM163 375v357h90v-357h-90zM447 375v375h85v-375h-85zM509 750h80l139 -375h-74zM671 375l138 375h80l-145 -375h-73zM866 375v375h86v-375h-86z" />
</font>
</defs>
</svg>
